<?xml version="1.0" encoding="UTF-8" standalone="no"?>
<!-- Created with Inkscape (http://www.inkscape.org/) -->

<svg
   width="260mm"
   height="260mm"
   viewBox="0 0 260 260"
   version="1.1"
   id="svg5"
   inkscape:version="1.2.2 (b0a84865, 2022-12-01)"
   sodipodi:docname="drawing.svg"
   xmlns:inkscape="http://www.inkscape.org/namespaces/inkscape"
   xmlns:sodipodi="http://sodipodi.sourceforge.net/DTD/sodipodi-0.dtd"
   xmlns="http://www.w3.org/2000/svg"
   xmlns:svg="http://www.w3.org/2000/svg">
  <sodipodi:namedview
     id="namedview7"
     pagecolor="#ffffff"
     bordercolor="#000000"
     borderopacity="0.25"
     inkscape:showpageshadow="2"
     inkscape:pageopacity="0.0"
     inkscape:pagecheckerboard="0"
     inkscape:deskcolor="#d1d1d1"
     inkscape:document-units="mm"
     showgrid="false"
     inkscape:zoom="0.2102413"
     inkscape:cx="397.16269"
     inkscape:cy="561.25984"
     inkscape:window-width="1309"
     inkscape:window-height="456"
     inkscape:window-x="0"
     inkscape:window-y="25"
     inkscape:window-maximized="0"
     inkscape:current-layer="layer1" />
  <defs
     id="defs2">
    <clipPath
       clipPathUnits="userSpaceOnUse"
       id="clipPath310">
      <path
         d="m 25245.4,14976.7 c -139.7,0 -280.4,22 -417,53.2 -184.1,42.1 -367.6,102.3 -521.2,212.2 -153.5,109.9 -274.9,275.7 -297,463.2 -17.8,150.3 27.9,300.7 31.1,452 4,184.9 -55.5,369.6 -30.3,552.8 28.7,207.6 165.4,388.5 333.9,513.1 322.5,238.4 643.1,283.7 987,283.7 174.2,0 354.5,-11.6 544,-15.7 12.4,-0.3 24.8,-0.4 37.2,-0.4 35.7,0 71.5,1 107.3,1.9 35.8,0.9 71.5,1.8 107.2,1.8 93.8,0 186.5,-6.4 275.1,-36.1 193.3,-65 342.6,-245.5 370.1,-447.6 17.6,-129.7 -11.3,-260.5 -33.8,-389.3 -32.6,-186.9 -52,-376.1 -57.9,-565.8 -7.5,-239.8 -5,-510.1 -176.4,-678 -141.2,-138.4 -355,-159.9 -544.4,-216.3 -158.4,-47.1 -307.9,-122.9 -469.2,-159 -80.8,-18 -163.1,-25.7 -245.7,-25.7 m -502.8,1072.6 c 5.3,-104.2 26.6,-212.3 80.2,-304.2 35.5,-60.9 89.1,-109.5 147.3,-149.3 129.7,-88.4 286.6,-133 443.4,-133 141.9,0 283.8,36.5 405.4,110.2 255.7,155 407.4,466.1 372.2,763 -22.8,192.4 -109.9,399 -297.3,447.4 -44,17.7 -91.7,23.7 -140.1,23.7 -35,0 -70.3,-3.1 -104.8,-7.1 -102.6,-11.8 -204.3,-29.9 -305.7,-49.4 -115.2,-22.2 -233.3,-47.4 -331.1,-112.3 -164.1,-109.2 -241.5,-311.7 -267.4,-507.1 -5.1,-38.5 -3.7,-75.3 3.1,-110.3 -2.4,9.2 -4.2,18.7 -5.2,28.4 -0.4,8.2 -0.8,16.3 -1,24.3 -0.2,-8.3 0.1,-16.4 1,-24.3"
         id="path308" />
    </clipPath>
    <radialGradient
       fx="0"
       fy="0"
       cx="0"
       cy="0"
       r="1"
       gradientUnits="userSpaceOnUse"
       gradientTransform="matrix(1327.32,0,0,-1327.32,25391.5,16241.8)"
       spreadMethod="pad"
       id="radialGradient318">
      <stop
         style="stop-opacity:1;stop-color:#ea9787"
         offset="0"
         id="stop312" />
      <stop
         style="stop-opacity:1;stop-color:#ea9787"
         offset="0.725362"
         id="stop314" />
      <stop
         style="stop-opacity:1;stop-color:#f9c0a5"
         offset="1"
         id="stop316" />
    </radialGradient>
    <clipPath
       clipPathUnits="userSpaceOnUse"
       id="clipPath328">
      <path
         d="m 27358.6,13059.8 c -510.9,0 -925.1,414.1 -925.1,925 0,510.9 414.2,925.1 925.1,925.1 510.9,0 925.1,-414.2 925.1,-925.1 0,-510.9 -414.2,-925 -925.1,-925 m -440.9,1017.1 c -27.7,-147.7 -44,-275.5 63.2,-402.9 52.6,-62.6 124.7,-105.6 198.3,-141.5 66.8,-32.5 138.2,-60.6 212.4,-60.6 1.5,0 2.9,0 4.3,0.1 109.8,1.6 211.7,67.2 277.9,154.8 66.2,87.6 100.8,195.1 122.6,302.8 13.2,65.4 22.1,133.2 8.9,198.7 -20.8,102.9 -91.6,198.1 -191.1,231.5 -13.7,8.3 -27.9,15.7 -42.4,22.3 -66.1,29.7 -136.7,43.9 -206.3,43.9 -209.3,0 -409.1,-128.5 -447.8,-349.1"
         id="path326" />
    </clipPath>
    <radialGradient
       fx="0"
       fy="0"
       cx="0"
       cy="0"
       r="1"
       gradientUnits="userSpaceOnUse"
       gradientTransform="matrix(925.059,0,0,-925.059,27358.6,13984.8)"
       spreadMethod="pad"
       id="radialGradient336">
      <stop
         style="stop-opacity:1;stop-color:#ed9e8c"
         offset="0"
         id="stop330" />
      <stop
         style="stop-opacity:1;stop-color:#ed9e8c"
         offset="0.725362"
         id="stop332" />
      <stop
         style="stop-opacity:1;stop-color:#f9c0a5"
         offset="1"
         id="stop334" />
    </radialGradient>
    <clipPath
       clipPathUnits="userSpaceOnUse"
       id="clipPath362">
      <path
         d="m 27777.9,14958.2 c -334.2,0 -605.1,271 -605.1,605.2 0,334.2 270.9,605.1 605.1,605.1 334.2,0 605.1,-270.9 605.1,-605.1 0,-334.2 -270.9,-605.2 -605.1,-605.2 m -289.1,661.8 c -18.1,-96.8 -28.2,-176.5 42,-260 34.5,-40.9 81.6,-69.1 129.7,-92.5 43.7,-21.3 90.5,-39.6 139,-39.6 0.9,0 1.9,0 2.8,0 71.8,1.1 138.5,44 181.8,101.3 43.3,57.3 65.9,127.6 80.2,198 8.6,42.8 14.4,87.2 5.8,130 -13.6,67.3 -66.8,133.6 -131.9,155.5 -6.8,3.8 -13.7,7.3 -20.8,10.5 -43.3,19.5 -89.5,28.8 -135,28.8 -138.1,0 -269.8,-85.5 -293.6,-232"
         id="path360" />
    </clipPath>
    <radialGradient
       fx="0"
       fy="0"
       cx="0"
       cy="0"
       r="1"
       gradientUnits="userSpaceOnUse"
       gradientTransform="matrix(605.129,0,0,-605.129,27777.9,15563.4)"
       spreadMethod="pad"
       id="radialGradient370">
      <stop
         style="stop-opacity:1;stop-color:#ed9e8c"
         offset="0"
         id="stop364" />
      <stop
         style="stop-opacity:1;stop-color:#ed9e8c"
         offset="0.725362"
         id="stop366" />
      <stop
         style="stop-opacity:1;stop-color:#f9c0a5"
         offset="1"
         id="stop368" />
    </radialGradient>
  </defs>
  <g
     inkscape:label="Layer 1"
     inkscape:groupmode="layer"
     id="layer1">
    <path
       d="m 253.80325,129.62288 c 0,67.88856 -55.03334,122.9219 -122.9219,122.9219 -67.885028,0 -122.9218885,-55.03334 -122.9218885,-122.9219 0,-67.885029 55.0368605,-122.9218936 122.9218885,-122.9218936 67.88856,0 122.9219,55.0368646 122.9219,122.9218936"
       style="fill:#f9c0a5;fill-opacity:1;fill-rule:nonzero;stroke:none;stroke-width:0.0352778"
       id="path302"
       sodipodi:nodetypes="csssc" />
    <g
       id="g304"
       transform="matrix(0.03527778,0,0,-0.03527778,-799.6089,670.94983)">
      <g
         id="g306"
         clip-path="url(#clipPath310)">
        <path
           d="m 25245.4,14976.7 c -139.7,0 -280.4,22 -417,53.2 -184.1,42.1 -367.6,102.3 -521.2,212.2 -153.5,109.9 -274.9,275.7 -297,463.2 -17.8,150.3 27.9,300.7 31.1,452 4,184.9 -55.5,369.6 -30.3,552.8 28.7,207.6 165.4,388.5 333.9,513.1 322.5,238.4 643.1,283.7 987,283.7 174.2,0 354.5,-11.6 544,-15.7 12.4,-0.3 24.8,-0.4 37.2,-0.4 35.7,0 71.5,1 107.3,1.9 35.8,0.9 71.5,1.8 107.2,1.8 93.8,0 186.5,-6.4 275.1,-36.1 193.3,-65 342.6,-245.5 370.1,-447.6 17.6,-129.7 -11.3,-260.5 -33.8,-389.3 -32.6,-186.9 -52,-376.1 -57.9,-565.8 -7.5,-239.8 -5,-510.1 -176.4,-678 -141.2,-138.4 -355,-159.9 -544.4,-216.3 -158.4,-47.1 -307.9,-122.9 -469.2,-159 -80.8,-18 -163.1,-25.7 -245.7,-25.7 m -502.8,1072.6 c 5.3,-104.2 26.6,-212.3 80.2,-304.2 35.5,-60.9 89.1,-109.5 147.3,-149.3 129.7,-88.4 286.6,-133 443.4,-133 141.9,0 283.8,36.5 405.4,110.2 255.7,155 407.4,466.1 372.2,763 -22.8,192.4 -109.9,399 -297.3,447.4 -44,17.7 -91.7,23.7 -140.1,23.7 -35,0 -70.3,-3.1 -104.8,-7.1 -102.6,-11.8 -204.3,-29.9 -305.7,-49.4 -115.2,-22.2 -233.3,-47.4 -331.1,-112.3 -164.1,-109.2 -241.5,-311.7 -267.4,-507.1 -5.1,-38.5 -3.7,-75.3 3.1,-110.3 -2.4,9.2 -4.2,18.7 -5.2,28.4 -0.4,8.2 -0.8,16.3 -1,24.3 -0.2,-8.3 0.1,-16.4 1,-24.3"
           style="fill:url(#radialGradient318);fill-opacity:1;fill-rule:nonzero;stroke:none"
           id="path320"
           sodipodi:nodetypes="cccccccscssscccccccccccscccscccccccc" />
      </g>
    </g>
    <g
       id="g322"
       transform="matrix(0.03527778,0,0,-0.03527778,-799.6089,670.94983)">
      <g
         id="g324"
         clip-path="url(#clipPath328)">
        <path
           d="m 27358.6,13059.8 c -510.9,0 -925.1,414.1 -925.1,925 0,510.9 414.2,925.1 925.1,925.1 510.9,0 925.1,-414.2 925.1,-925.1 0,-510.9 -414.2,-925 -925.1,-925 m -440.9,1017.1 c -27.7,-147.7 -44,-275.5 63.2,-402.9 52.6,-62.6 124.7,-105.6 198.3,-141.5 66.8,-32.5 138.2,-60.6 212.4,-60.6 1.5,0 2.9,0 4.3,0.1 109.8,1.6 211.7,67.2 277.9,154.8 66.2,87.6 100.8,195.1 122.6,302.8 13.2,65.4 22.1,133.2 8.9,198.7 -20.8,102.9 -91.6,198.1 -191.1,231.5 -13.7,8.3 -27.9,15.7 -42.4,22.3 -66.1,29.7 -136.7,43.9 -206.3,43.9 -209.3,0 -409.1,-128.5 -447.8,-349.1"
           style="fill:url(#radialGradient336);fill-opacity:1;fill-rule:nonzero;stroke:none"
           id="path338"
           sodipodi:nodetypes="csssccccscsccccsc" />
      </g>
    </g>
    <path
       d="m 73.329182,101.8769 c 0.9137,-6.893269 3.6442,-14.037019 9.43328,-17.889353 3.45017,-2.289528 7.61647,-3.178528 11.68047,-3.961695 3.57717,-0.687916 7.164918,-1.326444 10.784418,-1.742722 3.19264,-0.366889 6.59342,-0.522111 9.44739,0.956028 2.55411,1.326444 4.34975,3.845278 5.28814,6.568722 0.93839,2.719917 1.10419,5.647973 1.04422,8.530168 -0.11641,5.951362 -1.29469,12.202582 -5.18583,16.707552 -2.30011,2.667 -5.3975,4.52967 -8.58661,6.02897 -2.97039,1.38995 -6.09248,2.51178 -9.345088,2.93864 -9.98714,1.31586 -26.14436,-6.19831 -24.56039,-18.13631"
       style="fill:#f28383;fill-opacity:1;fill-rule:nonzero;stroke:none;stroke-width:0.0352778"
       id="path340"
       sodipodi:nodetypes="ccccccccccc" />
    <path
       d="m 96.661912,114.52752 c 7.930438,-0.92781 15.448138,-5.79614 18.958278,-12.96459 3.50661,-7.171966 3.58422,-16.785161 -1.778,-22.701244 6.62869,1.696861 9.70844,8.995833 10.51277,15.790334 1.24178,10.47397 -4.10986,21.44888 -13.13039,26.91694 -9.02405,5.46806 -21.226638,5.13997 -29.943778,-0.80433 -2.05316,-1.40406 -3.94405,-3.11856 -5.19641,-5.26698 -2.03906,-3.4925 -2.75167,-7.65175 -2.86456,-11.58875 -0.20814,8.98878 16.94745,11.37709 23.44209,10.61862"
       style="fill:#ef7b7b;fill-opacity:1;fill-rule:nonzero;stroke:none;stroke-width:0.0352778"
       id="path342"
       sodipodi:nodetypes="ccccccccc" />
    <path
       d="m 104.34541,117.6249 c 2.1978,-0.79727 4.19452,-2.08491 5.98311,-3.58775 6.11717,-5.1435 9.84955,-13.01396 9.96597,-21.00438 0.39158,3.474861 0.6985,7.00617 0.0988,10.44927 -1.29822,7.47889 -7.0097,13.85359 -14.06878,16.64406 -7.059078,2.79047 -15.232948,2.17664 -22.143858,-0.96661 -1.67922,-0.762 -3.34081,-1.70745 -4.4697,-3.16795 3.71828,0.81139 7.49653,1.27 11.22186,2.04259 4.31801,0.89605 9.214558,1.1183 13.412618,-0.40923"
       style="fill:#ed7272;fill-opacity:1;fill-rule:nonzero;stroke:none;stroke-width:0.0352778"
       id="path344"
       sodipodi:nodetypes="ccccscccc" />
    <path
       d="m 84.402882,106.96043 c -1.6757,0 -3.34786,-0.53269 -4.6602,-1.56986 -2.33539,-1.8415 -3.31611,-5.0553 -2.94569,-8.004522 0.37042,-2.949223 1.92969,-5.644445 3.89114,-7.877528 3.77825,-4.310945 9.18633,-7.104945 14.859,-7.835195 1.58044,-0.204611 3.44311,-0.437445 5.298718,-0.437445 3.29847,0 6.57931,0.733778 8.24795,3.65125 1.52752,2.663473 0.55739,6.618112 -2.25778,7.845779 -1.83445,0.797278 -3.94053,0.398639 -5.9302,0.599722 -3.273768,0.335139 -6.311188,2.469445 -7.732888,5.439834 -0.53269,1.114777 -0.84666,2.321275 -1.39347,3.425465 -1.05128,2.13431 -2.99861,3.83117 -5.28461,4.47675 -0.68086,0.1905 -1.38642,0.28575 -2.09197,0.28575"
       style="fill:#f49595;fill-opacity:1;fill-rule:nonzero;stroke:none;stroke-width:0.0352778"
       id="path346"
       sodipodi:nodetypes="ccsccsccccccc" />
    <path
       d="m 149.76555,176.35535 c -0.33514,7.27075 5.28108,14.34748 12.43542,15.68098 7.15433,1.32997 14.94014,-3.25614 17.24025,-10.16 0.78316,-2.3495 0.98425,-4.86481 0.85725,-7.33778 -0.0847,-1.61572 -0.31045,-3.24556 -0.91722,-4.74486 -1.13595,-2.80459 -3.55953,-4.97064 -6.31826,-6.21242 -9.93069,-4.4697 -22.75416,1.00894 -23.29744,12.77408"
       style="fill:#f49389;fill-opacity:1;fill-rule:nonzero;stroke:none;stroke-width:0.0352778"
       id="path348"
       sodipodi:nodetypes="ccccccc" />
    <path
       d="m 152.21735,188.56147 c 1.85562,2.20839 4.39914,3.72533 6.99559,4.9918 2.40241,1.1677 4.97417,2.17311 7.64469,2.13431 3.8735,-0.0565 7.46831,-2.37067 9.8037,-5.461 2.33539,-3.09034 3.556,-6.8827 4.32505,-10.68211 0.46567,-2.30717 0.77964,-4.699 0.31398,-7.0097 -0.73378,-3.63008 -3.23145,-6.98853 -6.74512,-8.17033 2.86103,3.2138 2.54,8.60425 0.20814,12.22022 -2.33539,3.61597 -6.54755,5.73264 -10.81616,6.27592 -3.02331,0.38452 -6.21595,0.0247 -8.85825,-1.49225 -2.62467,-1.50636 -4.86128,-4.00403 -5.09764,-7.0485 -0.98073,5.22111 -1.55928,9.74019 2.22602,14.24164"
       style="fill:#f2897e;fill-opacity:1;fill-rule:nonzero;stroke:none;stroke-width:0.0352778"
       id="path350"
       sodipodi:nodetypes="cccscccccccc" />
    <path
       d="m 177.57149,179.43863 c 0.22225,2.39889 -0.97366,4.75545 -2.65641,6.48053 -3.4925,3.5807 -12.23081,6.91092 -20.19653,-0.76553 0.28928,2.58586 2.25425,4.78014 4.61786,5.85964 2.36714,1.0795 5.07647,1.18534 7.65528,0.86078 1.3088,-0.16228 2.61055,-0.43392 3.83117,-0.92781 4.43088,-1.79916 7.34483,-6.76627 6.74863,-11.50761"
       style="fill:#f27e72;fill-opacity:1;fill-rule:nonzero;stroke:none;stroke-width:0.0352778"
       id="path352"
       sodipodi:nodetypes="ccccccc" />
    <path
       d="m 160.68049,177.25847 c -0.20461,0 -0.40922,-0.0176 -0.60677,-0.0529 -1.73214,-0.31045 -3.19617,-1.81681 -3.41137,-3.56306 -0.49036,-3.92994 4.43442,-6.65691 7.76817,-7.02028 0.10936,-0.0106 0.21872,-0.0176 0.33161,-0.0176 2.88925,0 7.11906,3.78883 3.47134,6.03602 -0.62442,0.38453 -1.37584,0.47625 -2.07786,0.69498 -1.23825,0.38452 -2.34598,1.19239 -3.09034,2.25425 -0.30691,0.43744 -0.56444,0.92427 -0.98778,1.24883 -0.39511,0.29986 -0.89252,0.41981 -1.397,0.41981"
       style="fill:#f6a39b;fill-opacity:1;fill-rule:nonzero;stroke:none;stroke-width:0.0352778"
       id="path354"
       sodipodi:nodetypes="ccccsccccc" />
    <g
       id="g356"
       transform="matrix(0.03527778,0,0,-0.03527778,-799.6089,670.94983)">
      <g
         id="g358"
         clip-path="url(#clipPath362)">
        <path
           d="m 27777.9,14958.2 c -334.2,0 -605.1,271 -605.1,605.2 0,334.2 270.9,605.1 605.1,605.1 334.2,0 605.1,-270.9 605.1,-605.1 0,-334.2 -270.9,-605.2 -605.1,-605.2 m -289.1,661.8 c -18.1,-96.8 -28.2,-176.5 42,-260 34.5,-40.9 81.6,-69.1 129.7,-92.5 43.7,-21.3 90.5,-39.6 139,-39.6 h 2.8 c 71.8,1.1 138.5,44 181.8,101.3 43.3,57.3 65.9,127.6 80.2,198 8.6,42.8 14.4,87.2 5.8,130 -13.6,67.3 -66.8,133.6 -131.9,155.5 -6.8,3.8 -13.7,7.3 -20.8,10.5 -43.3,19.5 -89.5,28.8 -135,28.8 -138.1,0 -269.8,-85.5 -293.6,-232"
           style="fill:url(#radialGradient370);fill-opacity:1;fill-rule:nonzero;stroke:none"
           id="path372"
           sodipodi:nodetypes="csssccccscsccccsc" />
      </g>
    </g>
    <path
       d="m 170.01499,121.09624 c -0.21872,4.75544 3.4537,9.38742 8.13153,10.25878 4.68136,0.87136 9.77195,-2.13078 11.27831,-6.64634 0.51505,-1.53811 0.64558,-3.18205 0.56092,-4.8013 -0.0529,-1.05481 -0.20109,-2.12373 -0.59973,-3.10445 -0.74083,-1.83444 -2.32833,-3.24908 -4.13102,-4.06047 -6.49817,-2.92453 -14.88723,0.65969 -15.24001,8.35378"
       style="fill:#f49389;fill-opacity:1;fill-rule:nonzero;stroke:none;stroke-width:0.0352778"
       id="path374"
       sodipodi:nodetypes="ccccccc" />
    <path
       d="m 171.61661,129.08313 c 1.21708,1.44286 2.87866,2.43769 4.57552,3.26319 1.57339,0.76553 3.25614,1.4217 5.00239,1.397 2.53295,-0.0388 4.88598,-1.55222 6.4135,-3.57364 1.52753,-2.02141 2.32481,-4.50144 2.82928,-6.985 0.30339,-1.50989 0.508,-3.07622 0.20461,-4.58611 -0.47978,-2.37772 -2.35655,-4.71311 -4.65314,-5.48569 1.86973,2.10255 1.90148,5.76791 0.37748,8.13152 -1.52753,2.36714 -4.28273,3.75003 -7.07673,4.10634 -1.97908,0.25047 -4.064,0.0176 -5.79261,-0.97367 -1.71803,-0.98778 -3.20322,-2.4765 -3.35844,-4.46969 -0.64206,3.41489 -0.99836,6.23005 1.47814,9.17575"
       style="fill:#f2897e;fill-opacity:1;fill-rule:nonzero;stroke:none;stroke-width:0.0352778"
       id="path376"
       sodipodi:nodetypes="cccscccccccc" />
    <path
       d="m 188.20422,123.11413 c 0.14464,1.56986 -0.63853,3.10797 -1.7392,4.23686 -2.286,2.34244 -9.05228,4.15219 -13.21153,-0.49742 0.1905,1.68981 1.47462,3.12561 3.02331,3.83117 1.54517,0.70555 3.31611,0.77611 5.00592,0.56444 0.85372,-0.10936 1.70744,-0.28575 2.50472,-0.6103 2.89983,-1.17475 4.80483,-4.42384 4.41678,-7.52475"
       style="fill:#f27e72;fill-opacity:1;fill-rule:nonzero;stroke:none;stroke-width:0.0352778"
       id="path378"
       sodipodi:nodetypes="ccccccc" />
    <path
       d="m 177.15522,121.68891 c -0.13406,0 -0.26811,-0.0141 -0.39864,-0.0388 -1.13242,-0.20109 -2.09197,-1.18534 -2.23309,-2.32834 -0.3175,-2.57175 2.90337,-4.35328 5.08353,-4.59316 0.0706,-0.007 0.14464,-0.0106 0.21873,-0.0106 1.88736,0 4.65313,2.4765 2.26836,3.94758 -0.40923,0.25047 -0.89959,0.31397 -1.3582,0.45508 -0.81139,0.25047 -1.53458,0.77964 -2.02142,1.47461 -0.20108,0.28575 -0.37041,0.60678 -0.64558,0.81845 -0.26105,0.19403 -0.58561,0.27517 -0.91369,0.27517"
       style="fill:#f6a39b;fill-opacity:1;fill-rule:nonzero;stroke:none;stroke-width:0.0352778"
       id="path380"
       sodipodi:nodetypes="ccscsccccc" />
  </g>
</svg>
